<svg version="1.1" id="Layer_1" xmlns="http://www.w3.org/2000/svg" xmlns:xlink="http://www.w3.org/1999/xlink" x="0px" y="0px"
	 width="100%" viewBox="0 0 1024 1024"  xml:space="preserve">
<path fill="#FFFFFF" opacity="1.000000" stroke="none" 
	d="
M654.000000,1025.000000 
	C436.000000,1025.000000 218.500000,1025.000000 1.000000,1025.000000 
	C1.000000,683.666687 1.000000,342.333344 1.000000,1.000000 
	C342.333344,1.000000 683.666687,1.000000 1025.000000,1.000000 
	C1025.000000,342.333344 1025.000000,683.666687 1025.000000,1025.000000 
	C901.500000,1025.000000 778.000000,1025.000000 654.000000,1025.000000 
M313.460815,499.611176 
	C313.939636,499.064331 314.418457,498.517487 315.568115,497.792938 
	C316.043518,497.294556 316.518951,496.796173 317.604889,496.360413 
	C319.243866,494.871948 320.882843,493.383484 323.236755,491.726440 
	C324.156647,490.929077 325.076538,490.131714 326.587097,489.368134 
	C327.750305,488.255249 328.913513,487.142365 330.692657,485.795990 
	C330.801758,485.605438 330.910889,485.414886 331.628906,485.262146 
	C352.158356,469.125244 372.625763,452.908691 393.231903,436.870331 
	C423.311707,413.458374 453.497223,390.182129 483.613861,366.817413 
	C485.475647,365.373016 487.129852,363.661102 489.455811,361.552185 
	C470.892151,352.843658 453.220337,344.553497 435.548553,336.263367 
	C435.667847,335.631470 435.787109,334.999573 435.906403,334.367676 
	C483.140015,314.611450 530.373596,294.855194 578.223511,274.841156 
	C550.822998,222.576614 522.548767,171.802002 493.421112,119.954720 
	C491.560303,123.829590 490.530701,126.063408 489.426453,128.259689 
	C468.665253,169.552902 447.786804,210.787552 427.152496,252.144073 
	C396.633667,313.311829 366.249756,374.547028 335.905273,435.801544 
	C331.125336,445.450500 326.855927,455.352417 321.786163,465.455811 
	C321.502167,466.243591 321.218201,467.031372 320.482666,468.122864 
	C320.287109,468.740875 320.091583,469.358887 319.331390,470.523376 
	C319.224396,471.029633 319.117401,471.535919 318.430023,472.330750 
	C314.526154,480.548279 310.622314,488.765778 306.192230,497.420258 
	C306.095306,497.857513 305.998413,498.294769 305.352173,499.118530 
	C303.834381,502.063751 302.316559,505.008972 300.798767,507.954193 
	C301.199707,508.245483 301.600647,508.536774 302.001587,508.828094 
	C303.309601,507.547272 304.617615,506.266449 306.600372,504.852264 
	C307.031799,504.354156 307.463226,503.856049 308.518372,503.365051 
	C309.852905,502.200592 311.187408,501.036133 312.809723,499.896576 
	C312.809723,499.896576 312.895325,499.620697 313.460815,499.611176 
M123.235336,860.823853 
	C124.361740,861.441589 125.455650,862.527466 126.619331,862.608276 
	C151.539566,864.338623 176.261887,863.007324 200.538132,856.813965 
	C250.610550,844.039612 292.514191,818.157410 323.749542,776.772766 
	C366.457550,720.187561 408.940643,663.409546 450.332520,605.860046 
	C498.158630,539.364624 546.545044,473.316010 597.007019,408.796600 
	C597.879456,407.681091 598.952026,406.722046 600.307312,405.293518 
	C608.056335,415.370544 615.466614,425.007111 622.876892,434.643677 
	C623.372192,434.485718 623.867554,434.327728 624.362915,434.169739 
	C636.565247,380.651154 648.767578,327.132538 660.969849,273.613953 
	C660.426636,273.344055 659.883484,273.074188 659.340271,272.804291 
	C607.229492,294.185944 555.118713,315.567627 503.007935,336.949280 
	C503.047028,337.368225 503.086151,337.787201 503.125244,338.206146 
	C515.208740,342.996674 527.292236,347.787201 539.375732,352.577728 
	C539.856995,353.347961 540.338257,354.118225 540.819519,354.888458 
	C539.392212,355.470520 537.730530,355.759277 536.575684,356.682312 
	C529.294434,362.502106 522.241455,368.610535 514.902039,374.354034 
	C435.069061,436.828156 355.182465,499.233765 275.393555,561.764038 
	C272.482086,564.045776 269.707428,567.059265 268.075653,570.333130 
	C243.074326,620.493713 218.387283,670.810974 193.393402,720.975342 
	C170.249954,767.425720 146.828293,813.737427 123.235336,860.823853 
M872.254578,824.208435 
	C857.210327,796.216858 842.113281,768.253479 827.132263,740.228149 
	C787.911560,666.857117 748.873474,593.388123 709.489807,520.104797 
	C692.515015,488.518890 674.876648,457.289490 657.475220,425.933929 
	C656.973145,425.029297 655.740051,424.530426 654.847778,423.842346 
	C654.175171,424.829193 653.146729,425.734558 652.898621,426.818573 
	C652.231934,429.730774 652.005066,432.740692 651.415222,435.673920 
	C648.532043,450.010498 645.736328,464.367401 642.603394,478.649933 
	C640.955383,486.162994 638.679504,493.538361 636.353699,502.220673 
	C623.144592,483.112091 610.665894,465.059998 597.986633,446.717834 
	C596.747620,448.436890 595.979797,449.519165 595.194763,450.588745 
	C580.841980,470.144928 566.536438,489.736298 552.069763,509.207947 
	C550.266113,511.635590 550.288635,513.298950 551.845947,515.782166 
	C562.367126,532.558350 572.759644,549.415710 583.117554,566.293579 
	C584.433777,568.438232 585.306641,570.855042 586.474915,573.337158 
	C585.109375,573.683838 584.632751,573.910828 584.156250,573.910583 
	C560.163086,573.898438 536.167847,574.015564 512.178650,573.693420 
	C508.116211,573.638916 505.732239,574.765015 503.461029,577.913025 
	C478.339111,612.733215 453.112549,647.477966 427.945648,682.265747 
	C426.854767,683.773682 426.066864,685.500854 424.586578,688.090027 
	C428.031464,688.090027 430.312836,688.089783 432.594177,688.089966 
	C501.742889,688.096008 570.891663,688.134766 640.040222,688.020874 
	C643.882019,688.014526 646.135132,689.114502 647.948303,692.520813 
	C661.863831,718.662842 676.386902,744.491821 689.841248,770.866882 
	C712.328186,814.948730 748.386353,841.929626 794.922974,856.019165 
	C821.421143,864.041748 848.675781,864.849792 876.081055,863.336365 
	C881.111511,863.058594 886.125488,862.482727 892.300110,861.943970 
	C885.347046,848.860596 878.970581,836.862305 872.254578,824.208435 
M492.328369,764.526672 
	C490.074829,756.482605 484.108612,751.971802 476.476410,751.277039 
	C466.319733,750.352356 456.015503,751.048706 445.339325,751.048706 
	C445.339325,775.156189 445.339325,798.859619 445.339325,822.563049 
	C443.966248,821.424316 443.432281,820.122803 442.942291,818.804932 
	C434.895996,797.163208 426.881744,775.509399 418.755920,753.897583 
	C418.187927,752.386902 416.802368,751.183655 415.796936,749.837402 
	C414.758026,751.127258 413.332916,752.260681 412.737762,753.730347 
	C402.450043,779.132324 392.260651,804.574158 382.068329,830.014771 
	C381.592529,831.202454 381.289368,832.459290 380.804047,834.008911 
	C383.506378,834.008911 385.864563,833.753479 388.144714,834.066650 
	C391.894440,834.581665 393.983551,833.366760 394.878021,829.533142 
	C395.666992,826.151794 396.781250,822.779907 398.287628,819.662720 
	C398.962433,818.266296 400.916534,816.642517 402.341125,816.593201 
	C410.661835,816.304626 419.001404,816.329163 427.324493,816.581238 
	C428.617859,816.620422 430.500519,818.114258 431.010651,819.379089 
	C432.927673,824.132263 434.389374,829.069092 436.045837,834.009277 
	C444.625702,834.009277 452.954376,834.136841 461.276917,833.965576 
	C467.084961,833.846130 472.991821,833.897095 478.665222,832.848083 
	C489.659332,830.815186 497.221741,822.575195 498.028687,812.810364 
	C499.097412,799.877869 494.758789,792.894104 482.675568,788.060791 
	C482.174774,787.860535 481.738159,787.499817 480.870972,786.968262 
	C490.029938,782.187439 494.846741,775.570007 492.328369,764.526672 
M575.179993,763.196655 
	C574.051941,760.070557 573.071289,756.879456 571.732971,753.846130 
	C571.076355,752.357910 569.756165,751.162537 568.736267,749.834595 
	C567.709412,751.144348 566.310791,752.303589 565.710876,753.786072 
	C555.426208,779.197205 545.236267,804.646606 535.045715,830.095703 
	C534.580627,831.257263 534.306885,832.495483 533.922363,833.769775 
	C538.213074,833.769775 542.157471,833.769775 546.274780,833.769775 
	C547.948914,828.915588 549.360107,824.125610 551.317993,819.570618 
	C551.908936,818.195740 553.987976,816.640198 555.435242,816.589539 
	C563.591614,816.303711 571.765259,816.556091 579.928406,816.392578 
	C582.642456,816.338257 583.668091,817.405090 584.372498,819.888977 
	C585.721985,824.646912 587.469666,829.291870 588.980591,833.771851 
	C599.018372,834.230774 608.643799,835.238586 618.232300,834.962280 
	C629.642029,834.633606 639.091370,826.670654 640.889160,817.191650 
	C643.120789,805.425293 638.230103,795.575623 627.260071,789.905640 
	C622.535645,787.463806 617.637207,785.340759 613.013367,782.726868 
	C606.804565,779.217102 604.408630,772.713013 606.671692,766.560913 
	C608.741211,760.934875 614.380615,757.991516 621.451294,759.386780 
	C625.604309,760.206238 629.608643,761.779480 634.036621,763.121826 
	C635.035828,760.200317 636.090088,757.117920 637.108215,754.140991 
	C628.361877,748.170044 612.226196,747.845337 603.984436,753.367981 
	C598.414612,757.100220 595.150879,762.274170 594.688293,769.095947 
	C593.956909,779.880676 598.233582,787.786560 607.972290,792.682190 
	C613.460388,795.441101 619.086853,798.000488 624.286011,801.236267 
	C629.181030,804.282837 631.040527,810.443604 629.529968,815.728760 
	C628.050903,820.903748 623.557068,825.070129 617.751465,824.812073 
	C612.417297,824.575073 607.160889,822.694885 601.856934,821.603699 
	C600.382629,821.300415 598.860657,821.228760 596.726746,820.975708 
	C589.863342,802.526489 582.680115,783.217651 575.179993,763.196655 
M684.219910,260.222229 
	C684.615845,260.757507 684.992798,261.308167 685.410645,261.825714 
	C691.829956,269.777191 703.545776,272.276917 712.958130,267.709229 
	C722.188354,263.229919 726.791260,253.331604 724.439209,243.019592 
	C722.124084,232.869583 713.151733,225.361603 703.101196,225.164108 
	C685.829102,224.824692 675.518616,243.231857 684.219910,260.222229 
M529.915588,817.497925 
	C527.980408,803.172302 531.524475,790.366821 540.183899,778.785767 
	C542.949890,775.086426 544.924683,770.795654 547.264099,766.777039 
	C550.235535,761.672791 553.209534,756.570007 556.314758,751.239380 
	C545.119812,750.352478 545.118652,750.351807 540.228882,758.926086 
	C534.999573,768.095703 529.772827,777.266785 524.258057,786.940491 
	C523.067505,785.074707 522.142944,783.749817 521.343689,782.353271 
	C515.982300,772.985291 510.540741,763.660278 505.374725,754.185242 
	C503.979187,751.625732 502.390991,750.609253 499.557648,750.881287 
	C497.188385,751.108765 494.779907,750.927979 491.773132,750.927979 
	C500.205292,765.397217 508.310730,779.089783 516.138489,792.939392 
	C517.527344,795.396667 518.354248,798.492493 518.422668,801.318115 
	C518.683472,812.099548 518.527954,822.891174 518.527954,833.704285 
	C522.539978,833.704285 526.104187,833.704285 529.915527,833.704285 
	C529.915527,828.433289 529.915527,823.464783 529.915588,817.497925 
z"/>
<path fill="#0F4989" opacity="1.000000" stroke="none" 
	d="
M123.382248,860.467041 
	C146.828293,813.737427 170.249954,767.425720 193.393402,720.975342 
	C218.387283,670.810974 243.074326,620.493713 268.075653,570.333130 
	C269.707428,567.059265 272.482086,564.045776 275.393555,561.764038 
	C355.182465,499.233765 435.069061,436.828156 514.902039,374.354034 
	C522.241455,368.610535 529.294434,362.502106 536.575684,356.682312 
	C537.730530,355.759277 539.392212,355.470520 540.819519,354.888458 
	C540.338257,354.118225 539.856995,353.347961 539.375732,352.577728 
	C527.292236,347.787201 515.208740,342.996674 503.125244,338.206146 
	C503.086151,337.787201 503.047028,337.368225 503.007935,336.949280 
	C555.118713,315.567627 607.229492,294.185944 659.340271,272.804291 
	C659.883484,273.074188 660.426636,273.344055 660.969849,273.613953 
	C648.767578,327.132538 636.565247,380.651154 624.362915,434.169739 
	C623.867554,434.327728 623.372192,434.485718 622.876892,434.643677 
	C615.466614,425.007111 608.056335,415.370544 600.307312,405.293518 
	C598.952026,406.722046 597.879456,407.681091 597.007019,408.796600 
	C546.545044,473.316010 498.158630,539.364624 450.332520,605.860046 
	C408.940643,663.409546 366.457550,720.187561 323.749542,776.772766 
	C292.514191,818.157410 250.610550,844.039612 200.538132,856.813965 
	C176.261887,863.007324 151.539566,864.338623 126.619331,862.608276 
	C125.455650,862.527466 124.361740,861.441589 123.382248,860.467041 
z"/>
<path fill="#F99702" opacity="1.000000" stroke="none" 
	d="
M872.424316,824.536194 
	C878.970581,836.862305 885.347046,848.860596 892.300110,861.943970 
	C886.125488,862.482727 881.111511,863.058594 876.081055,863.336365 
	C848.675781,864.849792 821.421143,864.041748 794.922974,856.019165 
	C748.386353,841.929626 712.328186,814.948730 689.841248,770.866882 
	C676.386902,744.491821 661.863831,718.662842 647.948303,692.520813 
	C646.135132,689.114502 643.882019,688.014526 640.040222,688.020874 
	C570.891663,688.134766 501.742889,688.096008 432.594177,688.089966 
	C430.312836,688.089783 428.031464,688.090027 424.586578,688.090027 
	C426.066864,685.500854 426.854767,683.773682 427.945648,682.265747 
	C453.112549,647.477966 478.339111,612.733215 503.461029,577.913025 
	C505.732239,574.765015 508.116211,573.638916 512.178650,573.693420 
	C536.167847,574.015564 560.163086,573.898438 584.156250,573.910583 
	C584.632751,573.910828 585.109375,573.683838 586.474915,573.337158 
	C585.306641,570.855042 584.433777,568.438232 583.117554,566.293579 
	C572.759644,549.415710 562.367126,532.558350 551.845947,515.782166 
	C550.288635,513.298950 550.266113,511.635590 552.069763,509.207947 
	C566.536438,489.736298 580.841980,470.144928 595.194763,450.588745 
	C595.979797,449.519165 596.747620,448.436890 597.986633,446.717834 
	C610.665894,465.059998 623.144592,483.112091 636.353699,502.220673 
	C638.679504,493.538361 640.955383,486.162994 642.603394,478.649933 
	C645.736328,464.367401 648.532043,450.010498 651.415222,435.673920 
	C652.005066,432.740692 652.231934,429.730774 652.898621,426.818573 
	C653.146729,425.734558 654.175171,424.829193 654.847778,423.842346 
	C655.740051,424.530426 656.973145,425.029297 657.475220,425.933929 
	C674.876648,457.289490 692.515015,488.518890 709.489807,520.104797 
	C748.873474,593.388123 787.911560,666.857117 827.132263,740.228149 
	C842.113281,768.253479 857.210327,796.216858 872.424316,824.536194 
z"/>
<path fill="#2088A7" opacity="1.000000" stroke="none" 
	d="
M322.350464,465.137390 
	C326.855927,455.352417 331.125336,445.450500 335.905273,435.801544 
	C366.249756,374.547028 396.633667,313.311829 427.152496,252.144073 
	C447.786804,210.787552 468.665253,169.552902 489.426453,128.259689 
	C490.530701,126.063408 491.560303,123.829590 493.421112,119.954720 
	C522.548767,171.802002 550.822998,222.576614 578.223511,274.841156 
	C530.373596,294.855194 483.140015,314.611450 435.906403,334.367676 
	C435.787109,334.999573 435.667847,335.631470 435.548553,336.263367 
	C453.220337,344.553497 470.892151,352.843658 489.455811,361.552185 
	C487.129852,363.661102 485.475647,365.373016 483.613861,366.817413 
	C453.497223,390.182129 423.311707,413.458374 393.231903,436.870331 
	C372.625763,452.908691 352.158356,469.125244 331.403168,484.951111 
	C330.759094,483.764587 330.551270,482.644531 329.878143,482.065002 
	C328.518890,480.894836 326.830719,480.115356 325.412933,479.003052 
	C320.620331,475.242859 323.559540,469.722809 322.350464,465.137390 
z"/>
<path fill="#050505" opacity="1.000000" stroke="none" 
	d="
M492.473083,764.919678 
	C494.846741,775.570007 490.029938,782.187439 480.870972,786.968262 
	C481.738159,787.499817 482.174774,787.860535 482.675568,788.060791 
	C494.758789,792.894104 499.097412,799.877869 498.028687,812.810364 
	C497.221741,822.575195 489.659332,830.815186 478.665222,832.848083 
	C472.991821,833.897095 467.084961,833.846130 461.276917,833.965576 
	C452.954376,834.136841 444.625702,834.009277 436.045837,834.009277 
	C434.389374,829.069092 432.927673,824.132263 431.010651,819.379089 
	C430.500519,818.114258 428.617859,816.620422 427.324493,816.581238 
	C419.001404,816.329163 410.661835,816.304626 402.341125,816.593201 
	C400.916534,816.642517 398.962433,818.266296 398.287628,819.662720 
	C396.781250,822.779907 395.666992,826.151794 394.878021,829.533142 
	C393.983551,833.366760 391.894440,834.581665 388.144714,834.066650 
	C385.864563,833.753479 383.506378,834.008911 380.804047,834.008911 
	C381.289368,832.459290 381.592529,831.202454 382.068329,830.014771 
	C392.260651,804.574158 402.450043,779.132324 412.737762,753.730347 
	C413.332916,752.260681 414.758026,751.127258 415.796936,749.837402 
	C416.802368,751.183655 418.187927,752.386902 418.755920,753.897583 
	C426.881744,775.509399 434.895996,797.163208 442.942291,818.804932 
	C443.432281,820.122803 443.966248,821.424316 445.339325,822.563049 
	C445.339325,798.859619 445.339325,775.156189 445.339325,751.048706 
	C456.015503,751.048706 466.319733,750.352356 476.476410,751.277039 
	C484.108612,751.971802 490.074829,756.482605 492.473083,764.919678 
M456.907349,810.489868 
	C456.907349,814.968933 456.907349,819.447937 456.907349,825.267273 
	C463.661224,824.663208 470.154938,824.762573 476.305054,823.357727 
	C483.751038,821.656982 486.640320,815.893372 486.159698,806.557983 
	C485.782043,799.221741 482.214752,794.472900 475.006836,793.321777 
	C469.197205,792.393982 463.212128,792.564453 456.907471,792.226379 
	C456.907471,798.560486 456.907471,804.027405 456.907349,810.489868 
M456.910767,762.635681 
	C456.910767,769.589417 456.910767,776.543213 456.910767,784.516907 
	C462.910309,783.964355 468.662354,784.223022 473.941223,782.766663 
	C482.187561,780.491577 484.648895,768.339539 478.468506,762.838379 
	C474.897675,759.659973 461.296661,758.279663 457.014679,760.701477 
	C456.852722,760.793030 456.943207,761.330872 456.910767,762.635681 
M426.088165,805.373657 
	C422.599304,794.501892 419.110443,783.630127 415.472717,772.294434 
	C414.857300,773.338257 414.334198,773.971863 414.077179,774.699402 
	C410.220398,785.617737 406.398743,796.548462 402.363953,808.060730 
	C410.428406,808.060730 417.858887,808.086731 425.287537,807.980225 
	C425.641113,807.975159 425.977844,806.796387 426.088165,805.373657 
z"/>
<path fill="#050505" opacity="1.000000" stroke="none" 
	d="
M575.338501,763.552734 
	C582.680115,783.217651 589.863342,802.526489 596.726746,820.975708 
	C598.860657,821.228760 600.382629,821.300415 601.856934,821.603699 
	C607.160889,822.694885 612.417297,824.575073 617.751465,824.812073 
	C623.557068,825.070129 628.050903,820.903748 629.529968,815.728760 
	C631.040527,810.443604 629.181030,804.282837 624.286011,801.236267 
	C619.086853,798.000488 613.460388,795.441101 607.972290,792.682190 
	C598.233582,787.786560 593.956909,779.880676 594.688293,769.095947 
	C595.150879,762.274170 598.414612,757.100220 603.984436,753.367981 
	C612.226196,747.845337 628.361877,748.170044 637.108215,754.140991 
	C636.090088,757.117920 635.035828,760.200317 634.036621,763.121826 
	C629.608643,761.779480 625.604309,760.206238 621.451294,759.386780 
	C614.380615,757.991516 608.741211,760.934875 606.671692,766.560913 
	C604.408630,772.713013 606.804565,779.217102 613.013367,782.726868 
	C617.637207,785.340759 622.535645,787.463806 627.260071,789.905640 
	C638.230103,795.575623 643.120789,805.425293 640.889160,817.191650 
	C639.091370,826.670654 629.642029,834.633606 618.232300,834.962280 
	C608.643799,835.238586 599.018372,834.230774 588.980591,833.771851 
	C587.469666,829.291870 585.721985,824.646912 584.372498,819.888977 
	C583.668091,817.405090 582.642456,816.338257 579.928406,816.392578 
	C571.765259,816.556091 563.591614,816.303711 555.435242,816.589539 
	C553.987976,816.640198 551.908936,818.195740 551.317993,819.570618 
	C549.360107,824.125610 547.948914,828.915588 546.274780,833.769775 
	C542.157471,833.769775 538.213074,833.769775 533.922363,833.769775 
	C534.306885,832.495483 534.580627,831.257263 535.045715,830.095703 
	C545.236267,804.646606 555.426208,779.197205 565.710876,753.786072 
	C566.310791,752.303589 567.709412,751.144348 568.736267,749.834595 
	C569.756165,751.162537 571.076355,752.357910 571.732971,753.846130 
	C573.071289,756.879456 574.051941,760.070557 575.338501,763.552734 
M574.192749,790.268555 
	C572.330994,784.453369 570.469299,778.638123 568.199646,771.548828 
	C565.713501,778.642639 563.697449,784.409790 561.670898,790.173340 
	C559.624084,795.994690 557.567078,801.812317 555.436096,807.853943 
	C564.072510,807.853943 571.827148,807.853943 579.600403,807.853943 
	C579.564331,807.297241 579.608459,806.951843 579.512451,806.651184 
	C577.846863,801.432922 576.163879,796.220276 574.192749,790.268555 
z"/>
<path fill="#FD9E0C" opacity="1.000000" stroke="none" 
	d="
M684.008850,259.924194 
	C675.518616,243.231857 685.829102,224.824692 703.101196,225.164108 
	C713.151733,225.361603 722.124084,232.869583 724.439209,243.019592 
	C726.791260,253.331604 722.188354,263.229919 712.958130,267.709229 
	C703.545776,272.276917 691.829956,269.777191 685.410645,261.825714 
	C684.992798,261.308167 684.615845,260.757507 684.008850,259.924194 
z"/>
<path fill="#050505" opacity="1.000000" stroke="none" 
	d="
M529.915527,817.997070 
	C529.915527,823.464783 529.915527,828.433289 529.915527,833.704285 
	C526.104187,833.704285 522.539978,833.704285 518.527954,833.704285 
	C518.527954,822.891174 518.683472,812.099548 518.422668,801.318115 
	C518.354248,798.492493 517.527344,795.396667 516.138489,792.939392 
	C508.310730,779.089783 500.205292,765.397217 491.773132,750.927979 
	C494.779907,750.927979 497.188385,751.108765 499.557648,750.881287 
	C502.390991,750.609253 503.979187,751.625732 505.374725,754.185242 
	C510.540741,763.660278 515.982300,772.985291 521.343689,782.353271 
	C522.142944,783.749817 523.067505,785.074707 524.258057,786.940491 
	C529.772827,777.266785 534.999573,768.095703 540.228882,758.926086 
	C545.118652,750.351807 545.119812,750.352478 556.314758,751.239380 
	C553.209534,756.570007 550.235535,761.672791 547.264099,766.777039 
	C544.924683,770.795654 542.949890,775.086426 540.183899,778.785767 
	C531.524475,790.366821 527.980408,803.172302 529.915527,817.997070 
z"/>
<path fill="#2187A2" opacity="1.000000" stroke="none" 
	d="
M322.068298,465.296600 
	C323.559540,469.722809 320.620331,475.242859 325.412933,479.003052 
	C326.830719,480.115356 328.518890,480.894836 329.878143,482.065002 
	C330.551270,482.644531 330.759094,483.764587 331.098694,484.932190 
	C330.910889,485.414886 330.801758,485.605438 330.057587,485.928802 
	C328.280487,487.152527 327.138458,488.243439 325.996429,489.334351 
	C325.076538,490.131714 324.156647,490.929077 322.580963,491.903259 
	C320.281586,493.485992 318.638000,494.891907 316.994385,496.297791 
	C316.518951,496.796173 316.043518,497.294556 314.949829,497.922119 
	C313.852814,498.574432 313.374084,499.097565 312.895325,499.620728 
	C312.895325,499.620697 312.809723,499.896576 312.376953,499.980896 
	C310.594360,501.162750 309.244507,502.260315 307.894653,503.357910 
	C307.463226,503.856049 307.031799,504.354156 305.941132,504.869995 
	C305.488434,502.835815 305.694977,500.783905 305.901489,498.732025 
	C305.998413,498.294769 306.095306,497.857513 306.730103,497.084839 
	C311.182159,488.513702 315.096313,480.277924 319.010437,472.042175 
	C319.117401,471.535919 319.224396,471.029633 319.839233,470.128174 
	C320.542786,469.095032 320.738495,468.457092 320.934204,467.819153 
	C321.218201,467.031372 321.502167,466.243591 322.068298,465.296600 
z"/>
<path fill="#2088A7" opacity="1.000000" stroke="none" 
	d="
M318.720215,472.186462 
	C315.096313,480.277924 311.182159,488.513702 306.993225,496.866364 
	C310.622314,488.765778 314.526154,480.548279 318.720215,472.186462 
z"/>
<path fill="#2088A7" opacity="1.000000" stroke="none" 
	d="
M305.626831,498.925293 
	C305.694977,500.783905 305.488434,502.835815 305.603760,504.936676 
	C304.617615,506.266449 303.309601,507.547272 302.001587,508.828094 
	C301.600647,508.536774 301.199707,508.245483 300.798767,507.954193 
	C302.316559,505.008972 303.834381,502.063751 305.626831,498.925293 
z"/>
<path fill="#2088A7" opacity="1.000000" stroke="none" 
	d="
M317.299622,496.329102 
	C318.638000,494.891907 320.281586,493.485992 322.223511,491.987549 
	C320.882843,493.383484 319.243866,494.871948 317.299622,496.329102 
z"/>
<path fill="#2088A7" opacity="1.000000" stroke="none" 
	d="
M308.206512,503.361481 
	C309.244507,502.260315 310.594360,501.162750 312.233063,499.968414 
	C311.187408,501.036133 309.852905,502.200592 308.206512,503.361481 
z"/>
<path fill="#2088A7" opacity="1.000000" stroke="none" 
	d="
M326.291748,489.351257 
	C327.138458,488.243439 328.280487,487.152527 329.749634,486.045563 
	C328.913513,487.142365 327.750305,488.255249 326.291748,489.351257 
z"/>
<path fill="#2088A7" opacity="1.000000" stroke="none" 
	d="
M320.708435,467.971008 
	C320.738495,468.457092 320.542786,469.095032 320.121552,469.854919 
	C320.091583,469.358887 320.287109,468.740875 320.708435,467.971008 
z"/>
<path fill="#2088A7" opacity="1.000000" stroke="none" 
	d="
M313.178101,499.615967 
	C313.374084,499.097565 313.852814,498.574432 314.614410,498.010986 
	C314.418457,498.517487 313.939636,499.064331 313.178101,499.615967 
z"/>
<path fill="#FBFBFB" opacity="1.000000" stroke="none" 
	d="
M456.907410,809.992065 
	C456.907471,804.027405 456.907471,798.560486 456.907471,792.226379 
	C463.212128,792.564453 469.197205,792.393982 475.006836,793.321777 
	C482.214752,794.472900 485.782043,799.221741 486.159698,806.557983 
	C486.640320,815.893372 483.751038,821.656982 476.305054,823.357727 
	C470.154938,824.762573 463.661224,824.663208 456.907349,825.267273 
	C456.907349,819.447937 456.907349,814.968933 456.907410,809.992065 
z"/>
<path fill="#FDFCFD" opacity="1.000000" stroke="none" 
	d="
M456.913391,762.148193 
	C456.943207,761.330872 456.852722,760.793030 457.014679,760.701477 
	C461.296661,758.279663 474.897675,759.659973 478.468506,762.838379 
	C484.648895,768.339539 482.187561,780.491577 473.941223,782.766663 
	C468.662354,784.223022 462.910309,783.964355 456.910767,784.516907 
	C456.910767,776.543213 456.910767,769.589417 456.913391,762.148193 
z"/>
<path fill="#FAF9FA" opacity="1.000000" stroke="none" 
	d="
M426.205292,805.768921 
	C425.977844,806.796387 425.641113,807.975159 425.287537,807.980225 
	C417.858887,808.086731 410.428406,808.060730 402.363953,808.060730 
	C406.398743,796.548462 410.220398,785.617737 414.077179,774.699402 
	C414.334198,773.971863 414.857300,773.338257 415.472717,772.294434 
	C419.110443,783.630127 422.599304,794.501892 426.205292,805.768921 
z"/>
<path fill="#FAF9FA" opacity="1.000000" stroke="none" 
	d="
M574.338745,790.637451 
	C576.163879,796.220276 577.846863,801.432922 579.512451,806.651184 
	C579.608459,806.951843 579.564331,807.297241 579.600403,807.853943 
	C571.827148,807.853943 564.072510,807.853943 555.436096,807.853943 
	C557.567078,801.812317 559.624084,795.994690 561.670898,790.173340 
	C563.697449,784.409790 565.713501,778.642639 568.199646,771.548828 
	C570.469299,778.638123 572.330994,784.453369 574.338745,790.637451 
z"/>
</svg>
